<?xml version="1.0" encoding="UTF-8"?>
<svg id="Layer_2" xmlns="http://www.w3.org/2000/svg" version="1.1" viewBox="0 0 201.1 200.7">
  <!-- Generator: Adobe Illustrator 29.7.1, SVG Export Plug-In . SVG Version: 2.1.1 Build 8)  -->
  <defs>
    <style>
      .st0 {
        fill: #fff;
      }
    </style>
  </defs>
  <g id="Layer_1-2">
    <g>
      <path class="st0" d="M100.2,0v2h0c18.9,0,37.2,5.3,52.8,15.2,14.7,9.4,26.8,22.7,34.9,38.4,8.1,15.6,11.9,32.9,11,50.1-.9,18.3-7.3,36.2-18.3,51.8-18.6,26.2-47.7,41.2-79.9,41.2s-36.8-5.1-52.4-14.7c-16.5-10.2-29.6-25.1-37.7-43.2C3.8,125.6,1,109.6,2.3,93.1c1.2-15.4,6.1-30.6,14.3-44,8.1-13.3,19.1-24.5,32.1-32.6,13.8-8.6,29.1-13.5,45.6-14.4,2-.1,4-.2,6-.2V0M100.2,0c-2,0-4.1,0-6.1.2C24.5,4.1-19.8,77.9,8.8,141.6c17.4,38.7,54.5,59.1,91.9,59.1s61.3-13.6,81.5-42C230.1,91.3,180.8,0,100.2,0h0Z"/>
      <path class="st0" d="M50.7,38.8c-18,2.4-17.7,31,.9,32.7,24.6,2.2,24.1-36.1-.9-32.7Z"/>
      <path class="st0" d="M151.5,133.8c-1.1,1-2,2.9-3,4.1-7.5,8.5-20.5,11.8-29.9,4.2-.9-.7-5.3-4.8-4.6-5.8h0s1.2-.4,1.6-.7c32.5-20.8,8.9-67-25-55.8-25.7,8.5-28.1,45.1-3.6,56.4.6.9-3.1,4.5-3.9,5.1-10.2,8.8-22.5,5-30.9-3.9-1.3-1.4-2.3-3.5-3.9-4.6-5.4-3.9-12.9.5-12.5,7,.3,5.7,10.3,14.3,15,17.1,15.9,9.2,33.9,6.3,46.3-7,.7-.7,2.7-3.8,3.4-3.8l7.2,7.5c16.3,14.9,45.2,9,56-9.6,5.4-9.4-5.7-16.7-12.1-10.4l-.1.2ZM105.6,122c-.8.9-3.8,3.7-4.8,3.8-2.1.2-5.8-3.9-7.2-5.5-5-5.9-8.7-15.5-3.7-22.5,2.1-3,5.7-5.1,9.3-5.4h0c4.2-.4,8.5,1.5,11.1,4.7,6.3,7.8,1.2,18.6-4.8,24.9h.1Z"/>
    </g>
  </g>
</svg>