<?xml version="1.0" encoding="UTF-8"?>
<svg id="Layer_2" data-name="Layer 2" xmlns="http://www.w3.org/2000/svg" viewBox="0 0 747.19 126.74">
  <defs>
    <style>
      .cls-1 {
        fill: #fff;
      }
    </style>
  </defs>
  <g id="Layer_1-2" data-name="Layer 1">
    <g>
      <g>
        <path class="cls-1" d="M90.35,106.74l48.72,19.01c10.88,3.31,18.67-1.77,18.67-13v-30.21l-67.39,24.2Z"/>
        <path class="cls-1" d="M90.35,106.74l68.04-40.82c9.63-5.78,15.51-16.18,15.51-27.4V10.33c0-4.47-1.37-8.59-5.39-9.93-2.77-.92-6.05-.38-10.72,3.23l-67.44,52.14v50.97Z"/>
        <path class="cls-1" d="M16.17,82.54v30.21c0,11.22,7.79,16.31,18.67,13l48.72-19.01-67.39-24.2Z"/>
        <path class="cls-1" d="M83.55,106.74L15.51,65.92C5.89,60.14,0,49.74,0,38.52V10.33C0,5.86,1.37,1.73,5.39.4,8.16-.53,11.43.01,16.11,3.63l67.44,52.14v50.97Z"/>
      </g>
      <path class="cls-1" d="M218.36,121.01c-.66-.66-.99-1.56-.99-2.71V14.8c0-1.15.33-2.05.99-2.71.66-.66,1.56-.99,2.71-.99h14.29c1.15,0,2.05.33,2.71.99.66.66.99,1.56.99,2.71v103.5c0,1.15-.33,2.05-.99,2.71-.66.66-1.56.99-2.71.99h-14.29c-1.15,0-2.05-.33-2.71-.99ZM257.91,121.01c-.66-.66-.99-1.56-.99-2.71V40.68c0-1.15.33-2.05.99-2.71.66-.66,1.56-.99,2.71-.99h13.92c1.15,0,2.05.33,2.71.99.66.66.99,1.56.99,2.71v10.84c2.22-4.44,5.65-8.11,10.29-11.03,4.64-2.91,10-4.37,16.08-4.37,8.95,0,15.81,2.59,20.58,7.76,4.76,5.17,7.15,12.98,7.15,23.41v51.01c0,1.15-.33,2.05-.99,2.71-.66.66-1.56.99-2.71.99h-14.29c-1.15,0-2.05-.33-2.71-.99-.66-.66-.99-1.56-.99-2.71v-48.42c0-5.01-1.29-8.91-3.88-11.7-2.59-2.79-6.26-4.19-11.03-4.19-5.42,0-9.63,1.64-12.63,4.93-3,3.29-4.5,7.68-4.5,13.18v46.2c0,1.15-.33,2.05-.99,2.71-.66.66-1.56.99-2.71.99h-14.29c-1.15,0-2.05-.33-2.71-.99ZM367.57,119.04l-28.46-77.87c-.25-.66-.37-1.19-.37-1.6,0-.82.29-1.46.86-1.91.57-.45,1.4-.68,2.46-.68h14.05c2.14,0,3.53,1.03,4.19,3.08l17.99,54.46h.99l17.25-54.46c.66-2.05,2.05-3.08,4.19-3.08h14.17c2.13,0,3.2.86,3.2,2.59,0,.66-.08,1.19-.25,1.6l-28.34,77.87c-.66,1.97-2.09,2.96-4.31,2.96h-13.31c-2.22,0-3.66-.99-4.31-2.96ZM440.38,118.54c-6.24-3.45-11.01-8.42-14.29-14.91-3.29-6.49-4.93-14.21-4.93-23.16s1.62-16.49,4.87-23.35c3.24-6.86,7.95-12.22,14.11-16.08,6.16-3.86,13.43-5.79,21.81-5.79,12.49,0,22.07,3.53,28.77,10.6,6.69,7.06,10.12,17.13,10.29,30.18l-.12,5.54c-.17,2.38-1.44,3.57-3.82,3.57h-53.47c.16,6.57,1.85,11.87,5.05,15.89,3.2,4.03,7.8,6.04,13.8,6.04,3.7,0,6.92-.72,9.67-2.16,2.75-1.44,4.82-3.63,6.22-6.59.99-1.97,2.42-2.96,4.31-2.96h13.55c1.07,0,1.91.27,2.53.8.62.53.92,1.25.92,2.16,0,.49-.04.86-.12,1.11-2.22,7.72-6.7,13.7-13.43,17.93-6.73,4.23-14.54,6.34-23.41,6.34s-16.06-1.72-22.3-5.17ZM479.81,70.37c-.17-5.42-1.71-9.98-4.62-13.68-2.92-3.7-7.33-5.54-13.25-5.54-5.34,0-9.69,1.83-13.06,5.48-3.37,3.66-5.13,8.23-5.3,13.74h36.22ZM516.65,121.01c-.66-.66-.99-1.56-.99-2.71V40.68c0-1.15.33-2.05.99-2.71.66-.66,1.56-.99,2.71-.99h13.92c1.15,0,2.05.33,2.71.99.66.66.99,1.56.99,2.71v10.84c2.22-4.44,5.65-8.11,10.29-11.03,4.64-2.91,10-4.37,16.08-4.37,8.95,0,15.81,2.59,20.58,7.76,4.76,5.17,7.15,12.98,7.15,23.41v51.01c0,1.15-.33,2.05-.99,2.71-.66.66-1.56.99-2.71.99h-14.29c-1.15,0-2.05-.33-2.71-.99-.66-.66-.99-1.56-.99-2.71v-48.42c0-5.01-1.29-8.91-3.88-11.7-2.59-2.79-6.26-4.19-11.03-4.19-5.42,0-9.63,1.64-12.63,4.93-3,3.29-4.5,7.68-4.5,13.18v46.2c0,1.15-.33,2.05-.99,2.71-.66.66-1.56.99-2.71.99h-14.29c-1.15,0-2.05-.33-2.71-.99ZM609.92,21.7c-2.38-2.38-3.57-5.42-3.57-9.12s1.19-6.61,3.57-9c2.38-2.38,5.42-3.57,9.12-3.57s6.59,1.19,8.93,3.57c2.34,2.38,3.51,5.38,3.51,9s-1.17,6.74-3.51,9.12c-2.34,2.38-5.32,3.57-8.93,3.57s-6.73-1.19-9.12-3.57ZM609.18,121.01c-.66-.66-.99-1.56-.99-2.71V40.68c0-1.15.33-2.05.99-2.71.66-.66,1.56-.99,2.71-.99h14.29c1.15,0,2.05.33,2.71.99.66.66.99,1.56.99,2.71v77.62c0,1.15-.33,2.05-.99,2.71-.66.66-1.56.99-2.71.99h-14.29c-1.15,0-2.05-.33-2.71-.99ZM657.29,120.76c-4.23-1.97-7.58-4.89-10.04-8.75-2.46-3.86-3.7-8.58-3.7-14.17,0-9.77,3.39-16.96,10.17-21.56,6.78-4.6,17.52-6.98,32.22-7.15l11.46-.12v-4.19c0-4.35-1.27-7.7-3.82-10.04-2.55-2.34-6.24-3.51-11.09-3.51-3.45,0-6.59.64-9.42,1.91-2.83,1.27-4.91,3.26-6.22,5.98-.82,1.97-2.22,2.96-4.19,2.96h-12.94c-2.3,0-3.45-.9-3.45-2.71.08-.49.16-.94.25-1.36,1.97-7.47,6.3-13.14,13-17,6.69-3.86,14.68-5.79,23.96-5.79,11.66,0,20.47,2.53,26.43,7.58,5.95,5.05,8.93,12.34,8.93,21.87v53.6c0,1.15-.33,2.05-.99,2.71-.66.66-1.56.99-2.71.99h-11.58c-2.3,0-3.61-1.11-3.94-3.33l-1.35-8.26c-2.22,4.68-5.59,8.07-10.1,10.17-4.52,2.09-10.1,3.14-16.76,3.14-5.17,0-9.88-.99-14.11-2.96ZM687.97,105.36c2.91-1.48,5.21-3.49,6.9-6.04,1.68-2.55,2.53-5.34,2.53-8.38v-7.52l-10.6.12c-7.72,0-13.33,1.03-16.82,3.08-3.49,2.05-5.24,5.38-5.24,9.98,0,3.45,1.27,6.14,3.82,8.07,2.54,1.93,5.79,2.9,9.73,2.9,3.53,0,6.75-.74,9.67-2.22Z"/>
      <g>
        <path class="cls-1" d="M718.84,18.59V1.88h-6.1V0h13.85v1.88h-5.74v16.71h-2.02Z"/>
        <path class="cls-1" d="M729.77,18.59V0h2.7l5.98,15.93L744.52,0h2.67v18.59h-2.08V3.34l-5.65,15.25h-2.02l-5.6-15.1v15.1h-2.08Z"/>
      </g>
    </g>
  </g>
</svg>