<?xml version="1.0" encoding="UTF-8"?>
<svg id="Layer_2" data-name="Layer 2" xmlns="http://www.w3.org/2000/svg" viewBox="0 0 746.63 185.21">
  <defs>
    <style>
      .cls-1 {
        fill-rule: evenodd;
      }

      .cls-1, .cls-2 {
        fill: #fff;
      }
    </style>
  </defs>
  <g id="Layer_1-2" data-name="Layer 1">
    <g>
      <path class="cls-2" d="M4.19,114.86h66.81l3.89-17.8H30.56L50.78,1.94h-22.66L4.19,114.86ZM157.92,114.86h24.26l-13.1-19.09c3.73-3.81,6.91-7.99,9.58-12.54,2.64-4.55,4.8-9.33,6.41-14.35,1.64-5.04,2.78-10.13,3.43-15.34h-19.74c-.1,3.29-.62,6.5-1.48,9.63-.86,3.13-2.02,6.17-3.45,9.11-1.43,2.92-3.07,5.75-4.93,8.44l-16.34-23.46c3.8-1.34,7.44-2.94,10.95-4.72,3.5-1.8,6.63-3.93,9.41-6.39,2.78-2.45,4.99-5.37,6.61-8.71,1.62-3.35,2.46-7.25,2.48-11.73-.03-3.56-.68-6.73-1.97-9.51-1.26-2.78-2.99-5.17-5.14-7.23-2.16-2.05-4.61-3.72-7.3-5.05-2.7-1.34-5.5-2.32-8.39-2.96-2.89-.65-5.69-.97-8.41-.97-4.32,0-8.5.57-12.52,1.76-4.02,1.16-7.63,2.91-10.82,5.28-3.2,2.37-5.74,5.34-7.63,8.93-1.86,3.58-2.8,7.81-2.86,12.67,0,3.29.35,6.15,1.06,8.55.68,2.38,1.62,4.56,2.8,6.53,1.19,1.97,2.53,3.94,4.07,5.96-4.15,1.24-8.09,2.91-11.81,4.96-3.73,2.05-7.01,4.53-9.9,7.44-2.88,2.88-5.18,6.23-6.82,10-1.64,3.78-2.5,8.01-2.54,12.7.03,4.56.76,8.57,2.19,12.08,1.43,3.5,3.4,6.52,5.93,9.05,2.5,2.51,5.45,4.59,8.76,6.18,3.31,1.62,6.9,2.8,10.71,3.58,3.8.76,7.7,1.14,11.72,1.14,2.65,0,5.4-.2,8.22-.6,2.84-.37,5.61-.95,8.37-1.67,2.75-.73,5.33-1.62,7.76-2.65,2.42-1.05,4.56-2.21,6.39-3.5l4.05,6.47ZM144.33,94.32c-1.71,1.24-3.59,2.29-5.66,3.13-2.1.83-4.29,1.46-6.57,1.89-2.29.43-4.56.65-6.85.65-2.7,0-5.23-.3-7.58-.89-2.37-.6-4.47-1.56-6.28-2.86-1.84-1.3-3.27-2.97-4.29-5.07-1.06-2.07-1.56-4.59-1.59-7.52.03-2.86.56-5.34,1.62-7.44,1.05-2.07,2.45-3.88,4.26-5.39,1.78-1.51,3.78-2.82,5.99-3.93,2.24-1.1,4.52-2.1,6.89-2.96l20.06,30.41ZM153.23,25.72c-.02,2.71-.67,5.05-1.88,7.04-1.24,2-2.84,3.67-4.8,5.07-1.97,1.4-4.1,2.56-6.34,3.48-2.26.92-4.45,1.64-6.55,2.21-1-1.38-1.94-2.83-2.84-4.43-.92-1.56-1.66-3.21-2.24-4.88-.59-1.67-.89-3.32-.92-4.93.02-2.85.65-5.31,1.89-7.31,1.24-2,2.94-3.51,5.07-4.56,2.13-1.03,4.56-1.57,7.28-1.57,1.89-.02,3.67.27,5.39.86,1.7.6,3.13,1.62,4.23,3.07,1.11,1.43,1.67,3.43,1.7,5.93ZM199.33,19.74h31.87l-20.55,95.13h23.62l20.55-95.13h31.87l3.73-17.8h-87.2l-3.88,17.8Z"/>
      <path class="cls-2" d="M273.39,66.15l-4.5,17.17h37.95l5.1-17.17h-38.55Z"/>
      <path class="cls-1" d="M510.01,37.7c5.11-4.82,13.03-11.59,22.94-11.39h74.39s6.13-24.55,6.13-24.55h-78.99c-9.81,0-15.98,1.21-18.06,10.43-2.2,9.76-4.43,16.64-6.41,25.52Z"/>
      <path class="cls-1" d="M587.62,58.27l-26.45-24.96-3.28,12.49-35.82.12c-10.24.03-13.33,2.17-15.37,12.27l-2.85,12.69h.02c-.8,3.52-1.57,6.91-2.26,9.99,2.88-4.99,9.84-9.94,15.89-9.94l36.03.16-2.5,12.17,36.59-24.99Z"/>
      <path class="cls-1" d="M410.82,1.76l-5.02,24.51h-43.57c-5.75,0-5.15,4.13-1.79,7.24,1.72,1.59,23.22,23.25,30.94,30.89,17.53,17.33,2.11,44.81-17.11,50.44h-58.58l9.76-22.84h34.23c14.65,0,18.25-5.5,8.27-16.04-1.52-1.6-29.69-29.46-29.69-29.46-13.58-14.05-11.61-42.31,13.58-44.74h58.98Z"/>
      <path class="cls-1" d="M594.97,114.83l19.1-82.12h23.57l-19.1,82.12h-23.57Z"/>
      <path class="cls-1" d="M615.63,26.02l5.63-24.22h23.57l-5.63,24.22h-23.57Z"/>
      <path class="cls-1" d="M698.36,114.83l-30.26-75.78-17.63,75.78h-21.87L654.89,1.8h24.93l27.79,72.96L724.58,1.8h22.05l-26.29,113.03h-21.98Z"/>
      <path class="cls-2" d="M4.19,114.86h66.81l3.89-17.8H30.56L50.78,1.94h-22.66L4.19,114.86ZM157.92,114.86h24.26l-13.1-19.09c3.73-3.81,6.91-7.99,9.58-12.54,2.64-4.55,4.8-9.33,6.41-14.35,1.64-5.04,2.78-10.13,3.43-15.34h-19.74c-.1,3.29-.62,6.5-1.48,9.63-.86,3.13-2.02,6.17-3.45,9.11-1.43,2.92-3.07,5.75-4.93,8.44l-16.34-23.46c3.8-1.34,7.44-2.94,10.95-4.72,3.5-1.8,6.63-3.93,9.41-6.39,2.78-2.45,4.99-5.37,6.61-8.71,1.62-3.35,2.46-7.25,2.48-11.73-.03-3.56-.68-6.73-1.97-9.51-1.26-2.78-2.99-5.17-5.14-7.23-2.16-2.05-4.61-3.72-7.3-5.05-2.7-1.34-5.5-2.32-8.39-2.96-2.89-.65-5.69-.97-8.41-.97-4.32,0-8.5.57-12.52,1.76-4.02,1.16-7.63,2.91-10.82,5.28-3.2,2.37-5.74,5.34-7.63,8.93-1.86,3.58-2.8,7.81-2.86,12.67,0,3.29.35,6.15,1.06,8.55.68,2.38,1.62,4.56,2.8,6.53,1.19,1.97,2.53,3.94,4.07,5.96-4.15,1.24-8.09,2.91-11.81,4.96-3.73,2.05-7.01,4.53-9.9,7.44-2.88,2.88-5.18,6.23-6.82,10-1.64,3.78-2.5,8.01-2.54,12.7.03,4.56.76,8.57,2.19,12.08,1.43,3.5,3.4,6.52,5.93,9.05,2.5,2.51,5.45,4.59,8.76,6.18,3.31,1.62,6.9,2.8,10.71,3.58,3.8.76,7.7,1.14,11.72,1.14,2.65,0,5.4-.2,8.22-.6,2.84-.37,5.61-.95,8.37-1.67,2.75-.73,5.33-1.62,7.76-2.65,2.42-1.05,4.56-2.21,6.39-3.5l4.05,6.47ZM144.33,94.32c-1.71,1.24-3.59,2.29-5.66,3.13-2.1.83-4.29,1.46-6.57,1.89-2.29.43-4.56.65-6.85.65-2.7,0-5.23-.3-7.58-.89-2.37-.6-4.47-1.56-6.28-2.86-1.84-1.3-3.27-2.97-4.29-5.07-1.06-2.07-1.56-4.59-1.59-7.52.03-2.86.56-5.34,1.62-7.44,1.05-2.07,2.45-3.88,4.26-5.39,1.78-1.51,3.78-2.82,5.99-3.93,2.24-1.1,4.52-2.1,6.89-2.96l20.06,30.41ZM153.23,25.72c-.02,2.71-.67,5.05-1.88,7.04-1.24,2-2.84,3.67-4.8,5.07-1.97,1.4-4.1,2.56-6.34,3.48-2.26.92-4.45,1.64-6.55,2.21-1-1.38-1.94-2.83-2.84-4.43-.92-1.56-1.66-3.21-2.24-4.88-.59-1.67-.89-3.32-.92-4.93.02-2.85.65-5.31,1.89-7.31,1.24-2,2.94-3.51,5.07-4.56,2.13-1.03,4.56-1.57,7.28-1.57,1.89-.02,3.67.27,5.39.86,1.7.6,3.13,1.62,4.23,3.07,1.11,1.43,1.67,3.43,1.7,5.93ZM199.33,19.74h31.87l-20.55,95.13h23.62l20.55-95.13h31.87l3.73-17.8h-87.2l-3.88,17.8Z"/>
      <path class="cls-2" d="M273.39,66.15l-4.5,17.17h37.95l5.1-17.17h-38.55Z"/>
      <path class="cls-1" d="M510.01,37.7c5.11-4.82,13.03-11.59,22.94-11.39h74.39s6.13-24.55,6.13-24.55h-78.99c-9.81,0-15.98,1.21-18.06,10.43-2.2,9.76-4.43,16.64-6.41,25.52Z"/>
      <path class="cls-1" d="M525.73,90.23h-13.26c-9.89-.01-12.19.98-13.85,10.18l-3.04,14.43h25.7l4.46-24.61Z"/>
      <path class="cls-1" d="M587.62,58.27l-26.45-24.96-3.28,12.49-35.82.12c-10.24.03-13.33,2.17-15.37,12.27l-2.85,12.69h.02c-.8,3.52-1.57,6.91-2.26,9.99,2.88-4.99,9.84-9.94,15.89-9.94l36.03.16-2.5,12.17,36.59-24.99Z"/>
      <path class="cls-1" d="M410.82,1.76l-5.02,24.51h-43.57c-5.75,0-5.15,4.13-1.79,7.24,1.72,1.59,23.22,23.25,30.94,30.89,17.53,17.33,4.36,50.44-20.14,50.44h-55.55l9.76-22.84h34.23c14.65,0,18.25-5.5,8.27-16.04-1.52-1.6-29.69-29.46-29.69-29.46-13.58-14.05-11.61-42.31,13.58-44.74h58.98Z"/>
      <path class="cls-1" d="M510.15,1.76l-14.77,73.57c-2.69,13.4-7.98,23.12-17.21,29.93-15.32,11.3-51.32,14.55-65.49.58-6.52-6.42-9.12-15.89-6.45-29.18L421.27,1.76h23.42l-14.6,72.74c-2.37,12.56.16,19.16,8.3,19.16,4.15,0,15.99.54,19.2-.5,8.17-2.67,12.14-7.57,14.2-17.83L486.56,1.76h23.59Z"/>
      <path class="cls-1" d="M594.97,114.83l19.1-82.12h23.57l-19.1,82.12h-23.57Z"/>
      <path class="cls-1" d="M615.63,26.02l5.63-24.22h23.57l-5.63,24.22h-23.57Z"/>
      <path class="cls-2" d="M0,184.67h4.69l3.17-7.86h15.28l3.17,7.86h4.87l-13.18-31.19h-4.69L0,184.67ZM21.72,173.14h-12.42l6.21-15.46,6.21,15.46ZM75.03,184.67h4.2v-10.37c0-5.72,2.46-9.29,6.21-9.29.72,0,1.56.09,2.32.4v-3.75c-.89-.18-1.52-.31-2.77-.31-2.41,0-4.83,1.7-5.94,4.07h-.09v-3.53h-3.93v22.79ZM93.7,167.06c1.7-1.43,4.24-2.32,6.61-2.32,4.2,0,5.63,2.01,5.63,5.94-1.65-.09-2.81-.09-4.47-.09-4.33,0-10.59,1.79-10.59,7.51,0,4.96,3.44,7.1,8.36,7.1,3.84,0,6.08-2.1,7.06-3.49h.09v2.95h3.93c-.09-.67-.18-1.88-.18-4.47v-9.43c0-6.21-2.64-9.43-9.16-9.43-2.9,0-5.41.89-7.51,2.15l.22,3.57ZM105.95,175.82c0,3.4-2.19,5.99-6.34,5.99-1.92,0-4.25-1.3-4.25-3.71,0-4.02,5.63-4.38,7.91-4.38.89,0,1.79.09,2.68.09v2.01ZM117.25,184.67h4.2v-10.55c0-5.54,2.15-9.38,6.93-9.38,3.66.22,4.83,2.82,4.83,8.13v11.8h4.2v-13.54c0-6.12-2.64-9.79-8.54-9.79-3.17,0-6.21,1.56-7.46,4.16h-.09v-3.62h-4.07v22.79ZM160.69,184.67h4.02v-33.51h-4.2v13.85h-.09c-1.3-2.1-3.57-3.66-7.55-3.66-6.61,0-9.83,5.41-9.83,11.53s2.9,12.33,9.79,12.33c4.07,0,6.66-2.06,7.78-3.75h.09v3.22ZM147.51,173.18c-.09-4.16,1.7-8.44,6.26-8.44s6.75,4.33,6.75,8.58c0,3.8-1.97,8.49-6.7,8.49s-6.39-5.05-6.3-8.62ZM182.76,173.27c0,6.52,4.74,11.93,11.62,11.93s11.57-5.41,11.57-11.93c0-6.93-4.65-11.93-11.57-11.93s-11.62,5.01-11.62,11.93ZM187.23,173.27c0-4.33,2.64-8.53,7.15-8.53s7.1,4.2,7.1,8.53c0,4.07-2.19,8.54-7.1,8.54s-7.15-4.47-7.15-8.54ZM214.31,184.67h4.2v-19.39h6.03v-3.4h-6.03v-2.46c0-3.08.45-5.41,4.07-5.41.72,0,1.52.09,2.01.27l.18-3.4c-.85-.13-1.74-.27-2.82-.27-6.21,0-7.64,3.62-7.64,9.16v2.1h-5.36v3.4h5.36v19.39ZM241.75,184.67h17.52v-3.93h-13.05v-27.26h-4.47v31.19ZM265.03,167.06c1.7-1.43,4.24-2.32,6.61-2.32,4.2,0,5.63,2.01,5.63,5.94-1.65-.09-2.82-.09-4.47-.09-4.33,0-10.59,1.79-10.59,7.51,0,4.96,3.44,7.1,8.36,7.1,3.84,0,6.08-2.1,7.06-3.49h.09v2.95h3.93c-.09-.67-.18-1.88-.18-4.47v-9.43c0-6.21-2.64-9.43-9.16-9.43-2.9,0-5.41.89-7.51,2.15l.22,3.57ZM277.27,175.82c0,3.4-2.19,5.99-6.34,5.99-1.92,0-4.25-1.3-4.25-3.71,0-4.02,5.63-4.38,7.91-4.38.89,0,1.79.09,2.68.09v2.01ZM288.58,184.67h4.2v-10.37c0-5.72,2.46-9.29,6.21-9.29.72,0,1.56.09,2.32.4v-3.75c-.89-.18-1.52-.31-2.77-.31-2.41,0-4.83,1.7-5.94,4.07h-.09v-3.53h-3.93v22.79ZM304.04,183.95c1.92,1.03,4.11,1.25,6.26,1.25,4.07,0,7.95-2.23,7.95-7.1,0-7.28-9.88-5.94-9.88-10.59,0-1.88,1.88-2.77,4.02-2.77.98,0,3.49.58,4.42,1.16l.36-3.66c-1.65-.49-3.26-.89-5.23-.89-4.51,0-8.04,2.28-8.04,7.02,0,6.39,9.88,6.03,9.88,10.19,0,2.46-2.37,3.26-4.29,3.26-1.21,0-3.57-.54-5.23-1.61l-.22,3.75ZM340.81,179.53c-1.03.85-4.24,2.28-7.01,2.28-3.98,0-7.51-3.08-7.51-7.6h16.27c0-7.33-2.46-12.87-10.05-12.87-6.43,0-10.68,4.78-10.68,11.53,0,7.42,3.71,12.33,11.8,12.33,3.75,0,5.59-.89,7.19-1.47v-4.2ZM326.29,171.08c.31-2.95,2.01-6.34,6.12-6.34,3.62,0,5.68,2.86,5.68,6.34h-11.8ZM348.19,184.67h4.2v-10.55c0-5.54,2.14-9.38,6.93-9.38,3.66.22,4.83,2.82,4.83,8.13v11.8h4.2v-13.54c0-6.12-2.64-9.79-8.53-9.79-3.17,0-6.21,1.56-7.46,4.16h-.09v-3.62h-4.07v22.79ZM409.09,167.82c-.22,3.57-.72,5.63-1.92,7.55l-6.34-7.24c3.31-1.47,6.84-4.16,6.84-8.13,0-4.92-3.66-7.06-7.73-7.06-4.47,0-8.13,2.32-8.13,7.33,0,2.99,1.56,5.09,3.22,7.1-4.2,1.7-6.97,4.38-6.97,9.12,0,5.23,3.89,8.71,10.05,8.71,3.98,0,6.7-1.03,8.94-3.57l2.55,3.04h5.59l-5.45-6.17c1.79-2.73,3.17-5.63,3.57-10.68h-4.2ZM392.78,176.18c0-3.08,2.01-4.56,4.38-6.17l7.51,8.8c-.98,1.12-2.86,2.99-5.77,2.99-3.22,0-6.12-2.19-6.12-5.63ZM396,160.36c0-2.68,1.7-4.02,3.75-4.02s3.71.98,3.71,3.84c0,2.64-2.82,4.56-4.69,5.45-1.34-1.47-2.77-3.17-2.77-5.27ZM439.21,184.67h4.47v-27.26h9.7v-3.93h-23.86v3.93h9.7v27.26ZM452.61,173.27c0,6.52,4.74,11.93,11.62,11.93s11.57-5.41,11.57-11.93c0-6.93-4.65-11.93-11.57-11.93s-11.62,5.01-11.62,11.93ZM457.08,173.27c0-4.33,2.64-8.53,7.15-8.53s7.11,4.2,7.11,8.53c0,4.07-2.19,8.54-7.11,8.54s-7.15-4.47-7.15-8.54ZM501.59,161.88h-4.2v10.55c0,5.54-2.14,9.38-6.93,9.38-3.66-.22-4.83-2.82-4.83-8.13v-11.8h-4.2v13.54c0,6.12,2.64,9.79,8.53,9.79,3.17,0,6.21-1.56,7.46-4.16h.09v3.62h4.07v-22.79ZM508.74,184.67h4.02v-3.22h.09c1.12,1.7,3.71,3.75,7.78,3.75,6.88,0,9.79-6.08,9.79-12.33s-3.22-11.53-9.83-11.53c-3.98,0-6.26,1.56-7.55,3.66h-.09v-13.85h-4.2v33.51ZM525.94,173.18c.09,3.57-1.79,8.62-6.3,8.62-4.74,0-6.7-4.69-6.7-8.49,0-4.24,2.19-8.58,6.75-8.58s6.34,4.33,6.26,8.44ZM536.04,184.67h4.2v-10.37c0-5.72,2.46-9.29,6.21-9.29.72,0,1.56.09,2.32.4v-3.75c-.89-.18-1.52-.31-2.77-.31-2.41,0-4.83,1.7-5.94,4.07h-.09v-3.53h-3.93v22.79ZM551.9,173.27c0,6.52,4.74,11.93,11.62,11.93s11.57-5.41,11.57-11.93c0-6.93-4.65-11.93-11.57-11.93s-11.62,5.01-11.62,11.93ZM556.37,173.27c0-4.33,2.64-8.53,7.15-8.53s7.1,4.2,7.1,8.53c0,4.07-2.19,8.54-7.1,8.54s-7.15-4.47-7.15-8.54ZM593.51,184.67h17.52v-3.93h-13.05v-27.26h-4.47v31.19ZM616.03,184.67h4.2v-22.79h-4.2v22.79ZM620.5,152.05h-4.74v4.74h4.74v-4.74ZM627.87,184.67h4.2v-11.48c0-4.24,1.7-8.44,5.99-8.44,3.39,0,4.07,3.53,4.07,6.34v13.58h4.2v-11.48c0-4.24,1.7-8.44,5.99-8.44,3.4,0,4.07,3.53,4.07,6.34v13.58h4.2v-14.61c0-4.96-2.1-8.71-7.91-8.71-2.06,0-5.5,1.16-7.06,4.42-1.21-3.08-3.84-4.42-6.48-4.42-3.35,0-5.63,1.21-7.24,3.84h-.09v-3.31h-3.93v22.79ZM668.17,184.67h4.2v-22.79h-4.2v22.79ZM672.64,152.05h-4.74v4.74h4.74v-4.74ZM692.17,161.88h-6.03v-6.61l-4.2,1.34v5.27h-5.14v3.4h5.14v13.32c0,4.56,2.68,6.61,7.02,6.61,1.34,0,2.64-.36,3.57-.63v-3.57c-.63.4-1.56.8-2.86.8-1.92,0-3.53-1.43-3.53-4.07v-12.47h6.03v-3.4ZM714.92,179.53c-1.03.85-4.24,2.28-7.02,2.28-3.98,0-7.51-3.08-7.51-7.6h16.27c0-7.33-2.46-12.87-10.05-12.87-6.43,0-10.68,4.78-10.68,11.53,0,7.42,3.71,12.33,11.8,12.33,3.75,0,5.59-.89,7.19-1.47v-4.2ZM700.39,171.08c.31-2.95,2.01-6.34,6.12-6.34,3.62,0,5.68,2.86,5.68,6.34h-11.8ZM738.42,184.67h4.02v-33.51h-4.2v13.85h-.09c-1.3-2.1-3.57-3.66-7.55-3.66-6.61,0-9.83,5.41-9.83,11.53s2.9,12.33,9.79,12.33c4.07,0,6.66-2.06,7.78-3.75h.09v3.22ZM725.24,173.18c-.09-4.16,1.7-8.44,6.26-8.44s6.75,4.33,6.75,8.58c0,3.8-1.97,8.49-6.7,8.49s-6.39-5.05-6.3-8.62ZM47.72,184.67h4.02v-3.22h.09c1.12,1.7,3.71,3.75,7.78,3.75,6.88,0,9.79-6.08,9.79-12.33s-3.22-11.53-9.83-11.53c-3.98,0-6.26,1.56-7.55,3.66h-.09v-13.85h-4.2v33.51ZM64.93,173.18c.09,3.57-1.79,8.62-6.3,8.62-4.74,0-6.7-4.69-6.7-8.49,0-4.24,2.19-8.58,6.75-8.58s6.35,4.33,6.26,8.44Z"/>
    </g>
  </g>
</svg>